<svg xmlns="http://www.w3.org/2000/svg" viewBox="0 0 1440 320"><path fill="#80868F" fill-opacity="1" d="M0,224L34.3,224C68.6,224,137,224,206,224C274.3,224,343,224,411,192C480,160,549,96,617,85.3C685.7,75,754,117,823,149.3C891.4,181,960,203,1029,202.7C1097.1,203,1166,181,1234,144C1302.9,107,1371,53,1406,26.7L1440,0L1440,320L1405.7,320C1371.4,320,1303,320,1234,320C1165.7,320,1097,320,1029,320C960,320,891,320,823,320C754.3,320,686,320,617,320C548.6,320,480,320,411,320C342.9,320,274,320,206,320C137.1,320,69,320,34,320L0,320Z"></path></svg>