<?xml version="1.0" standalone="no"?><svg xmlns="http://www.w3.org/2000/svg" viewBox="0 0 1440 320"><path fill="#9DA1AA" fill-opacity="1" d="M0,256L26.7,224C53.3,192,107,128,160,101.3C213.3,75,267,85,320,96C373.3,107,427,117,480,138.7C533.3,160,587,192,640,208C693.3,224,747,224,800,213.3C853.3,203,907,181,960,149.3C1013.3,117,1067,75,1120,74.7C1173.3,75,1227,117,1280,160C1333.3,203,1387,245,1413,266.7L1440,288L1440,320L1413.3,320C1386.7,320,1333,320,1280,320C1226.7,320,1173,320,1120,320C1066.7,320,1013,320,960,320C906.7,320,853,320,800,320C746.7,320,693,320,640,320C586.7,320,533,320,480,320C426.7,320,373,320,320,320C266.7,320,213,320,160,320C106.7,320,53,320,27,320L0,320Z"></path></svg>